<mxfile host="app.diagrams.net" modified="2022-03-11T08:06:52.695Z" agent="5.0 (Macintosh; Intel Mac OS X 10_15_2) AppleWebKit/537.36 (KHTML, like Gecko) Chrome/98.0.4758.109 Safari/537.36" etag="4aSkDGSxcEqI9lEiZFFR" version="16.6.1" type="github">
  <diagram id="wFE0QG_FPsp0jaGvCLVb" name="Page-1">
    <mxGraphModel dx="2148" dy="786" grid="1" gridSize="10" guides="1" tooltips="1" connect="1" arrows="1" fold="1" page="1" pageScale="1" pageWidth="850" pageHeight="1100" math="0" shadow="0">
      <root>
        <mxCell id="0" />
        <mxCell id="1" parent="0" />
        <mxCell id="zbjC4olAFxsm4mvHzc2k-51" value="" style="group" vertex="1" connectable="0" parent="1">
          <mxGeometry x="390" y="20" width="240" height="560" as="geometry" />
        </mxCell>
        <mxCell id="zbjC4olAFxsm4mvHzc2k-52" value="" style="rounded=0;whiteSpace=wrap;html=1;sketch=0;fillColor=none;" vertex="1" parent="zbjC4olAFxsm4mvHzc2k-51">
          <mxGeometry width="240" height="560" as="geometry" />
        </mxCell>
        <mxCell id="zbjC4olAFxsm4mvHzc2k-53" value="&lt;font size=&quot;1&quot;&gt;&lt;b style=&quot;font-size: 18px&quot;&gt;新用户未首单&lt;/b&gt;&lt;/font&gt;" style="rounded=0;whiteSpace=wrap;html=1;sketch=0;fillColor=none;" vertex="1" parent="zbjC4olAFxsm4mvHzc2k-51">
          <mxGeometry width="240" height="40" as="geometry" />
        </mxCell>
        <mxCell id="zbjC4olAFxsm4mvHzc2k-54" value="" style="group" vertex="1" connectable="0" parent="1">
          <mxGeometry x="-140" width="240" height="560" as="geometry" />
        </mxCell>
        <mxCell id="zbjC4olAFxsm4mvHzc2k-34" value="" style="rounded=0;whiteSpace=wrap;html=1;sketch=0;fillColor=none;" vertex="1" parent="zbjC4olAFxsm4mvHzc2k-54">
          <mxGeometry width="240" height="560" as="geometry" />
        </mxCell>
        <mxCell id="zbjC4olAFxsm4mvHzc2k-37" value="&lt;font size=&quot;1&quot;&gt;&lt;b style=&quot;font-size: 18px&quot;&gt;新用户未首单&lt;/b&gt;&lt;/font&gt;" style="rounded=0;whiteSpace=wrap;html=1;sketch=0;fillColor=none;" vertex="1" parent="zbjC4olAFxsm4mvHzc2k-54">
          <mxGeometry width="240" height="40" as="geometry" />
        </mxCell>
        <mxCell id="zbjC4olAFxsm4mvHzc2k-55" value="&lt;h3 id=&quot;id-京东支付小程序一期-页面分为”品牌logo＋slogan“区域、”引导开启按钮“区域、京东支付介绍及京东支付使用介绍区域&quot; style=&quot;margin: 0px ; padding: 0px ; font-size: 16px ; line-height: 1.5 ; letter-spacing: -0.006em ; text-align: left ; background-color: rgb(255 , 255 , 255)&quot;&gt;&lt;font color=&quot;#003366&quot;&gt;品牌logo+slogan区&lt;/font&gt;&lt;/h3&gt;" style="rounded=0;whiteSpace=wrap;html=1;sketch=0;fillColor=none;" vertex="1" parent="zbjC4olAFxsm4mvHzc2k-54">
          <mxGeometry x="10" y="60" width="220" height="60" as="geometry" />
        </mxCell>
        <mxCell id="zbjC4olAFxsm4mvHzc2k-56" value="&lt;font style=&quot;font-size: 16px&quot; color=&quot;#003366&quot;&gt;&lt;b&gt;引导开启京东支付&lt;/b&gt;&lt;/font&gt;" style="whiteSpace=wrap;html=1;fillColor=none;rounded=0;sketch=0;" vertex="1" parent="zbjC4olAFxsm4mvHzc2k-54">
          <mxGeometry x="10" y="150" width="220" height="60" as="geometry" />
        </mxCell>
        <mxCell id="zbjC4olAFxsm4mvHzc2k-57" value="" style="edgeStyle=orthogonalEdgeStyle;rounded=0;orthogonalLoop=1;jettySize=auto;html=1;fontSize=16;entryX=0.5;entryY=0;entryDx=0;entryDy=0;" edge="1" parent="zbjC4olAFxsm4mvHzc2k-54" source="zbjC4olAFxsm4mvHzc2k-55" target="zbjC4olAFxsm4mvHzc2k-56">
          <mxGeometry relative="1" as="geometry" />
        </mxCell>
        <mxCell id="zbjC4olAFxsm4mvHzc2k-58" value="&lt;b style=&quot;font-size: 16px&quot;&gt;&lt;font color=&quot;#003366&quot;&gt;京东支付介绍页&lt;/font&gt;&lt;/b&gt;" style="whiteSpace=wrap;html=1;fillColor=none;rounded=0;sketch=0;" vertex="1" parent="zbjC4olAFxsm4mvHzc2k-54">
          <mxGeometry x="10" y="240" width="220" height="60" as="geometry" />
        </mxCell>
        <mxCell id="zbjC4olAFxsm4mvHzc2k-59" value="" style="edgeStyle=orthogonalEdgeStyle;rounded=0;orthogonalLoop=1;jettySize=auto;html=1;fontSize=16;" edge="1" parent="zbjC4olAFxsm4mvHzc2k-54" source="zbjC4olAFxsm4mvHzc2k-56" target="zbjC4olAFxsm4mvHzc2k-58">
          <mxGeometry relative="1" as="geometry" />
        </mxCell>
        <mxCell id="zbjC4olAFxsm4mvHzc2k-60" value="&lt;b style=&quot;font-size: 16px&quot;&gt;&lt;font color=&quot;#003366&quot;&gt;京东支付是什么?&lt;br&gt;如何使用?&lt;/font&gt;&lt;/b&gt;" style="ellipse;whiteSpace=wrap;html=1;fillColor=none;rounded=0;sketch=0;" vertex="1" parent="zbjC4olAFxsm4mvHzc2k-54">
          <mxGeometry x="10" y="340" width="220" height="64.17" as="geometry" />
        </mxCell>
        <mxCell id="zbjC4olAFxsm4mvHzc2k-61" value="" style="edgeStyle=orthogonalEdgeStyle;rounded=0;orthogonalLoop=1;jettySize=auto;html=1;fontSize=16;" edge="1" parent="zbjC4olAFxsm4mvHzc2k-54" source="zbjC4olAFxsm4mvHzc2k-58" target="zbjC4olAFxsm4mvHzc2k-60">
          <mxGeometry relative="1" as="geometry" />
        </mxCell>
      </root>
    </mxGraphModel>
  </diagram>
</mxfile>
